# xmcd
#
# Track frame offsets: 
#        150
#        12482
#        27231
#        38029
#        52113
#        69134
#        80139
#        91238
#        103522
#        117920
#        129147
#        138108
#        151137
#        162627
#        173626
#
# Disc length: 2479 seconds
#
# Revision: 0
# Processed by: cddbd v1.5.1PL0 Copyright (c) Steve Scherf et al.
# Submitted via: ExactAudioCopy v0.95a4
#
DISCID=b709ad0f
DTITLE=Five Blind Boys of Mississippi - In the Hands of the Lord
DYEAR=2004
DGENRE=Gospel
TTITLE0=In the Hands of the Lord
TTITLE1=Oh, Why
TTITLE2=I'm a Soldier
TTITLE3=I'm Willing to Run
TTITLE4=Let's Have Church
TTITLE5=You Don't Know
TTITLE6=Where There's a Will
TTITLE7=All Over Me
TTITLE8=Jesus Loves Me
TTITLE9=I'm a Rolling
TTITLE10=My Robe Will Fit Me
TTITLE11=I Never Heard a Man
TTITLE12=Somebody's Mother
TTITLE13=There's No Need to Cry
TTITLE14=Don't Forget the Bridge
EXTD=
EXTT0=
EXTT1=
EXTT2=
EXTT3=
EXTT4=
EXTT5=
EXTT6=
EXTT7=
EXTT8=
EXTT9=
EXTT10=
EXTT11=
EXTT12=
EXTT13=
EXTT14=
PLAYORDER=
